<svg xmlns="http://www.w3.org/2000/svg" viewBox="0 0 20 20">
    <g id="Слой_2" data-name="Слой 2">
        <g id="Слой_1-2" data-name="Слой 1">
            <g id="Plus">
                <path d="M13.78,10a.68.68,0,0,1-.59.75H6.8A.68.68,0,0,1,6.22,10a.68.68,0,0,1,.59-.75H13.2A.68.68,0,0,1,13.78,10Z"/>
                <path d="M10,13.78a.68.68,0,0,1-.75-.59V6.8A.68.68,0,0,1,10,6.22a.68.68,0,0,1,.75.59V13.2A.68.68,0,0,1,10,13.78Z"/>
                <g id="Stroke-4">
                    <path d="M10,20C2.62,20,0,17.38,0,10S2.62,0,10,0,20,2.62,20,10,17.38,20,10,20ZM10,1.5c-6.51,0-8.5,2-8.5,8.5s2,8.5,8.5,8.5,8.5-2,8.5-8.5S16.51,1.5,10,1.5Z"/>
                </g>
            </g>
        </g>
    </g>
</svg>