<svg xmlns="http://www.w3.org/2000/svg" viewBox="0 0 20.5 19.5"><title>Ресурс 1</title><g id="Слой_2" data-name="Слой 2"><g id="Слой_1-2" data-name="Слой 1"><g id="Iconly_Curved_Danger-Triangle" data-name="Iconly/Curved/Danger-Triangle"><g id="Danger-Triangle"><g id="Stroke-3"><path d="M10.25,19.5c-5.79,0-9.63-.24-10.2-3.42-.38-2.14,1.26-5.4,2.92-8.3l.21-.37C6.22,2,8.14,0,10.25,0s4,2,7.06,7.41l.21.36c1.66,2.91,3.3,6.17,2.92,8.31C19.88,19.26,16,19.5,10.25,19.5Zm0-18c-1.42,0-3.14,2-5.76,6.65l-.21.38C3.44,10,1.2,13.93,1.53,15.82,1.83,17.51,3.79,18,10.25,18s8.42-.49,8.72-2.18c.33-1.9-1.91-5.83-2.75-7.31L16,8.15C13.39,3.49,11.67,1.5,10.25,1.5Z"/></g><g id="Stroke-3-2" data-name="Stroke-3"><path d="M10.25,10.9a.75.75,0,0,1-.75-.75V6.25a.75.75,0,1,1,1.5,0v3.9A.75.75,0,0,1,10.25,10.9Z"/></g><g id="Stroke-15"><path d="M10.25,14.39a.75.75,0,0,1-.75-.75.75.75,0,0,1,.75-.75h0a.75.75,0,0,1,0,1.5Z"/></g></g></g></g></g></svg>