<svg xmlns="http://www.w3.org/2000/svg" viewBox="0 0 15.19 20.76">
    <g id="Слой_2" data-name="Слой 2">
        <g id="Слой_1-2" data-name="Слой 1">
            <g id="Iconly_Curved_Profile" data-name="Iconly/Curved/Profile">
                <g id="Profile">
                    <g id="Stroke-1">
                        <path d="M7.59,20.76c-1.88,0-7.59,0-7.59-3.62C0,14.33,3.48,12,7.59,12s7.59,2.36,7.59,5.15C15.19,20.76,9.47,20.76,7.59,20.76Zm0-7.3c-3.49,0-6.09,1.94-6.09,3.67,0,1.41,2.05,2.13,6.09,2.13s6.09-.72,6.09-2.15C13.69,15.39,11.08,13.46,7.59,13.46Z"/>
                    </g>
                    <g id="Stroke-3">
                        <path d="M7.59,10.27h0a5.14,5.14,0,1,1,5.17-5.14A5.13,5.13,0,0,1,7.56,10.27Zm0-8.77A3.64,3.64,0,0,0,4,5.14,3.62,3.62,0,0,0,7.56,8.77l0,.75V8.77a3.64,3.64,0,0,0,0-7.27Z"/>
                    </g>
                </g>
            </g>
        </g>
    </g>
</svg>